<svg xmlns="http://www.w3.org/2000/svg" xmlns:xlink="http://www.w3.org/1999/xlink" width="500" zoomAndPan="magnify" viewBox="0 0 375 374.999991" height="500" preserveAspectRatio="xMidYMid meet" version="1.0"><defs><g/><clipPath id="d993200228"><path d="M 145 123 L 196 123 L 196 194.894531 L 145 194.894531 Z M 145 123 " clip-rule="nonzero"/></clipPath><clipPath id="999237646f"><path d="M 162 117 L 235.710938 117 L 235.710938 192 L 162 192 Z M 162 117 " clip-rule="nonzero"/></clipPath><clipPath id="ed58ff98c3"><path d="M 199 99.644531 L 221 99.644531 L 221 121 L 199 121 Z M 199 99.644531 " clip-rule="nonzero"/></clipPath></defs><rect x="-37.5" width="450" fill="#ffffff" y="-37.499999" height="449.999989" fill-opacity="1"/><rect x="-37.5" width="450" fill="#ffffff" y="-37.499999" height="449.999989" fill-opacity="1"/><path fill="#00adef" d="M 150.871094 133.882812 C 151.476562 130.070312 153.023438 127.929688 154.535156 126.726562 C 155.414062 126.027344 156.601562 127.011719 156.097656 128.015625 C 153.546875 133.097656 155.015625 139.792969 157.769531 146.089844 C 154.695312 142.230469 152.074219 138.023438 150.871094 133.882812 " fill-opacity="1" fill-rule="nonzero"/><g clip-path="url(#d993200228)"><path fill="#00adef" d="M 189.074219 162.308594 C 185.257812 158.8125 174.449219 149.796875 174.296875 144.359375 C 174.144531 138.925781 164.847656 145.425781 174.398438 157.851562 C 174.398438 157.851562 144.988281 145.441406 150.148438 124.167969 C 150.445312 122.949219 148.417969 122.589844 147.929688 123.75 C 145.828125 128.757812 138.953125 142.167969 163.394531 164.597656 C 180.230469 180.050781 188.09375 181.476562 189.78125 194.847656 C 189.78125 194.847656 204.222656 176.175781 189.074219 162.308594 " fill-opacity="1" fill-rule="nonzero"/></g><path fill="#00adef" d="M 155.621094 133.972656 C 155.589844 137.679688 156.792969 141.78125 158.546875 145.769531 C 157.460938 140.945312 157.464844 136.265625 159.625 132.636719 C 160.199219 131.667969 159.082031 130.605469 158.15625 131.238281 C 157.289062 131.832031 156.398438 132.699219 155.621094 133.972656 " fill-opacity="1" fill-rule="nonzero"/><g clip-path="url(#999237646f)"><path fill="#ed0e64" d="M 225.5625 121.636719 C 216.535156 115.816406 203.289062 116.664062 188.058594 123.988281 C 176.976562 117.808594 162.980469 118.164062 162.980469 118.164062 C 183.765625 124.835938 188.128906 136.527344 188.128906 136.527344 C 199.136719 128.679688 213.625 127.371094 219.507812 131.058594 C 235.289062 140.953125 216.035156 177.285156 196.5625 191.375 C 223.890625 175.824219 234.53125 156.140625 235.25 142.351562 C 235.710938 133.457031 232.179688 125.90625 225.5625 121.636719 " fill-opacity="1" fill-rule="nonzero"/></g><g clip-path="url(#ed58ff98c3)"><path fill="#ed0e64" d="M 220.171875 110.207031 C 220.171875 116.027344 215.464844 120.746094 209.652344 120.746094 C 203.84375 120.746094 199.136719 116.027344 199.136719 110.207031 C 199.136719 104.386719 203.84375 99.667969 209.652344 99.667969 C 215.464844 99.667969 220.171875 104.386719 220.171875 110.207031 " fill-opacity="1" fill-rule="nonzero"/></g><g fill="#00adef" fill-opacity="1"><g transform="translate(62.13628, 243.547887)"><g><path d="M 2.25 -4.53125 C 1.476562 -5.46875 1.09375 -6.3125 1.09375 -7.0625 C 1.09375 -7.8125 1.722656 -8.800781 2.984375 -10.03125 C 3.722656 -10.726562 4.5 -11.078125 5.3125 -11.078125 C 6.132812 -11.078125 7.28125 -10.347656 8.75 -8.890625 C 9.164062 -8.390625 9.753906 -7.910156 10.515625 -7.453125 C 11.273438 -7.003906 11.976562 -6.78125 12.625 -6.78125 C 15.351562 -6.78125 16.71875 -7.890625 16.71875 -10.109375 C 16.71875 -10.785156 16.34375 -11.347656 15.59375 -11.796875 C 14.84375 -12.253906 13.910156 -12.585938 12.796875 -12.796875 C 11.679688 -13.003906 10.476562 -13.332031 9.1875 -13.78125 C 7.894531 -14.238281 6.691406 -14.773438 5.578125 -15.390625 C 4.472656 -16.003906 3.546875 -16.976562 2.796875 -18.3125 C 2.046875 -19.65625 1.671875 -21.265625 1.671875 -23.140625 C 1.671875 -25.710938 2.628906 -27.957031 4.546875 -29.875 C 6.472656 -31.800781 9.09375 -32.765625 12.40625 -32.765625 C 14.164062 -32.765625 15.769531 -32.535156 17.21875 -32.078125 C 18.664062 -31.628906 19.671875 -31.171875 20.234375 -30.703125 L 21.328125 -29.859375 C 22.242188 -29.015625 22.703125 -28.296875 22.703125 -27.703125 C 22.703125 -27.117188 22.347656 -26.316406 21.640625 -25.296875 C 20.640625 -23.828125 19.613281 -23.09375 18.5625 -23.09375 C 17.945312 -23.09375 17.1875 -23.382812 16.28125 -23.96875 C 16.1875 -24.03125 16.015625 -24.175781 15.765625 -24.40625 C 15.515625 -24.644531 15.289062 -24.835938 15.09375 -24.984375 C 14.46875 -25.367188 13.675781 -25.5625 12.71875 -25.5625 C 11.769531 -25.5625 10.976562 -25.332031 10.34375 -24.875 C 9.71875 -24.414062 9.40625 -23.78125 9.40625 -22.96875 C 9.40625 -22.164062 9.78125 -21.515625 10.53125 -21.015625 C 11.28125 -20.523438 12.210938 -20.191406 13.328125 -20.015625 C 14.441406 -19.835938 15.65625 -19.566406 16.96875 -19.203125 C 18.289062 -18.835938 19.507812 -18.390625 20.625 -17.859375 C 21.738281 -17.328125 22.671875 -16.410156 23.421875 -15.109375 C 24.171875 -13.804688 24.546875 -12.203125 24.546875 -10.296875 C 24.546875 -8.390625 24.160156 -6.707031 23.390625 -5.25 C 22.628906 -3.800781 21.632812 -2.679688 20.40625 -1.890625 C 18.03125 -0.335938 15.492188 0.4375 12.796875 0.4375 C 11.421875 0.4375 10.113281 0.269531 8.875 -0.0625 C 7.644531 -0.40625 6.648438 -0.820312 5.890625 -1.3125 C 4.335938 -2.257812 3.253906 -3.171875 2.640625 -4.046875 Z M 2.25 -4.53125 "/></g></g></g><g fill="#00adef" fill-opacity="1"><g transform="translate(87.768005, 243.547887)"><g><path d="M 24.109375 -14.359375 C 24.109375 -12.554688 23.660156 -11.222656 22.765625 -10.359375 C 21.867188 -9.492188 20.878906 -9.0625 19.796875 -9.0625 L 9.375 -9.0625 C 9.375 -8.238281 9.851562 -7.546875 10.8125 -6.984375 C 11.78125 -6.429688 12.75 -6.15625 13.71875 -6.15625 C 15.425781 -6.15625 16.757812 -6.332031 17.71875 -6.6875 L 18.203125 -6.859375 C 18.910156 -7.179688 19.5 -7.34375 19.96875 -7.34375 C 20.90625 -7.34375 21.710938 -6.679688 22.390625 -5.359375 C 22.765625 -4.566406 22.953125 -3.894531 22.953125 -3.34375 C 22.953125 -0.726562 19.832031 0.578125 13.59375 0.578125 C 11.425781 0.578125 9.5 0.203125 7.8125 -0.546875 C 6.125 -1.296875 4.8125 -2.285156 3.875 -3.515625 C 2.019531 -5.890625 1.09375 -8.546875 1.09375 -11.484375 C 1.09375 -15.171875 2.285156 -18.117188 4.671875 -20.328125 C 7.066406 -22.546875 10.054688 -23.65625 13.640625 -23.65625 C 17.710938 -23.65625 20.703125 -22.222656 22.609375 -19.359375 C 23.609375 -17.828125 24.109375 -16.160156 24.109375 -14.359375 Z M 14.828125 -13.0625 C 15.941406 -13.0625 16.5 -13.53125 16.5 -14.46875 C 16.5 -15.144531 16.238281 -15.6875 15.71875 -16.09375 C 15.207031 -16.507812 14.472656 -16.71875 13.515625 -16.71875 C 12.566406 -16.71875 11.625 -16.328125 10.6875 -15.546875 C 9.75 -14.773438 9.28125 -13.945312 9.28125 -13.0625 Z M 14.828125 -13.0625 "/></g></g></g><g fill="#00adef" fill-opacity="1"><g transform="translate(112.960075, 243.547887)"><g><path d="M 14.609375 -23.09375 C 17.535156 -23.09375 19.972656 -21.976562 21.921875 -19.75 C 23.867188 -17.519531 24.84375 -14.789062 24.84375 -11.5625 L 24.84375 -3.828125 C 24.84375 -3.148438 24.820312 -2.640625 24.78125 -2.296875 C 24.738281 -1.960938 24.601562 -1.578125 24.375 -1.140625 C 23.988281 -0.378906 22.859375 0 20.984375 0 C 19.191406 0 18.078125 -0.378906 17.640625 -1.140625 C 17.398438 -1.578125 17.257812 -1.972656 17.21875 -2.328125 C 17.175781 -2.679688 17.15625 -3.210938 17.15625 -3.921875 L 17.15625 -11.609375 C 17.15625 -12.816406 16.816406 -13.753906 16.140625 -14.421875 C 15.460938 -15.097656 14.601562 -15.4375 13.5625 -15.4375 C 12.519531 -15.4375 11.601562 -15.117188 10.8125 -14.484375 C 10.019531 -13.859375 9.566406 -13.148438 9.453125 -12.359375 L 9.453125 -3.828125 C 9.453125 -3.148438 9.429688 -2.640625 9.390625 -2.296875 C 9.347656 -1.960938 9.207031 -1.578125 8.96875 -1.140625 C 8.59375 -0.378906 7.46875 0 5.59375 0 C 3.738281 0 2.609375 -0.394531 2.203125 -1.1875 C 1.992188 -1.625 1.867188 -2.003906 1.828125 -2.328125 C 1.785156 -2.648438 1.765625 -3.164062 1.765625 -3.875 L 1.765625 -30.171875 C 1.765625 -30.847656 1.785156 -31.351562 1.828125 -31.6875 C 1.867188 -32.03125 1.992188 -32.40625 2.203125 -32.8125 C 2.609375 -33.601562 3.75 -34 5.625 -34 C 7.476562 -34 8.59375 -33.601562 8.96875 -32.8125 C 9.207031 -32.375 9.347656 -31.984375 9.390625 -31.640625 C 9.429688 -31.304688 9.453125 -30.800781 9.453125 -30.125 L 9.453125 -20.40625 C 10.921875 -22.195312 12.640625 -23.09375 14.609375 -23.09375 Z M 14.609375 -23.09375 "/></g></g></g><g fill="#00adef" fill-opacity="1"><g transform="translate(139.559025, 243.547887)"><g><path d="M 16.796875 -20.71875 C 16.972656 -22.363281 18.132812 -23.1875 20.28125 -23.1875 C 21.425781 -23.1875 22.273438 -23.097656 22.828125 -22.921875 C 23.378906 -22.742188 23.765625 -22.429688 23.984375 -21.984375 C 24.210938 -21.546875 24.347656 -21.160156 24.390625 -20.828125 C 24.429688 -20.492188 24.453125 -19.988281 24.453125 -19.3125 L 24.453125 -3.921875 C 24.453125 -3.242188 24.429688 -2.734375 24.390625 -2.390625 C 24.347656 -2.054688 24.222656 -1.671875 24.015625 -1.234375 C 23.609375 -0.472656 22.601562 -0.09375 21 -0.09375 C 19.40625 -0.09375 18.335938 -0.289062 17.796875 -0.6875 C 17.253906 -1.082031 16.9375 -1.660156 16.84375 -2.421875 C 15.757812 -0.867188 13.945312 -0.09375 11.40625 -0.09375 C 8.875 -0.09375 6.519531 -1.25 4.34375 -3.5625 C 2.175781 -5.875 1.09375 -8.5625 1.09375 -11.625 C 1.09375 -14.695312 2.1875 -17.382812 4.375 -19.6875 C 6.5625 -21.988281 8.957031 -23.140625 11.5625 -23.140625 C 12.5625 -23.140625 13.472656 -22.960938 14.296875 -22.609375 C 15.117188 -22.253906 15.691406 -21.921875 16.015625 -21.609375 C 16.335938 -21.304688 16.597656 -21.007812 16.796875 -20.71875 Z M 8.796875 -11.5625 C 8.796875 -10.59375 9.175781 -9.71875 9.9375 -8.9375 C 10.695312 -8.164062 11.617188 -7.78125 12.703125 -7.78125 C 13.796875 -7.78125 14.703125 -8.175781 15.421875 -8.96875 C 16.140625 -9.757812 16.5 -10.628906 16.5 -11.578125 C 16.5 -12.535156 16.148438 -13.425781 15.453125 -14.25 C 14.765625 -15.070312 13.84375 -15.484375 12.6875 -15.484375 C 11.53125 -15.484375 10.59375 -15.070312 9.875 -14.25 C 9.15625 -13.425781 8.796875 -12.53125 8.796875 -11.5625 Z M 8.796875 -11.5625 "/></g></g></g><g fill="#00adef" fill-opacity="1"><g transform="translate(165.762298, 243.547887)"><g><path d="M 15.21875 -15.390625 L 12.359375 -15.578125 L 12.359375 -9.5 C 12.359375 -8.707031 12.484375 -8.132812 12.734375 -7.78125 C 12.984375 -7.425781 13.453125 -7.25 14.140625 -7.25 C 14.828125 -7.25 15.351562 -7.226562 15.71875 -7.1875 C 16.09375 -7.144531 16.484375 -7.007812 16.890625 -6.78125 C 17.566406 -6.394531 17.90625 -5.410156 17.90625 -3.828125 C 17.90625 -1.984375 17.492188 -0.851562 16.671875 -0.4375 C 16.234375 -0.226562 15.84375 -0.101562 15.5 -0.0625 C 15.164062 -0.0195312 14.675781 0 14.03125 0 C 10.976562 0 8.660156 -0.6875 7.078125 -2.0625 C 5.492188 -3.445312 4.703125 -5.78125 4.703125 -9.0625 L 4.703125 -15.578125 C 4.148438 -15.484375 3.550781 -15.4375 2.90625 -15.4375 C 2.257812 -15.4375 1.722656 -15.6875 1.296875 -16.1875 C 0.867188 -16.6875 0.65625 -17.535156 0.65625 -18.734375 C 0.65625 -19.941406 0.726562 -20.816406 0.875 -21.359375 C 1.019531 -21.898438 1.226562 -22.285156 1.5 -22.515625 C 1.96875 -22.898438 2.550781 -23.09375 3.25 -23.09375 L 4.703125 -22.921875 L 4.703125 -27.453125 C 4.703125 -28.117188 4.722656 -28.613281 4.765625 -28.9375 C 4.816406 -29.257812 4.957031 -29.613281 5.1875 -30 C 5.570312 -30.726562 6.703125 -31.09375 8.578125 -31.09375 C 10.566406 -31.09375 11.753906 -30.550781 12.140625 -29.46875 C 12.285156 -29 12.359375 -28.25 12.359375 -27.21875 L 12.359375 -22.921875 C 13.648438 -23.035156 14.625 -23.09375 15.28125 -23.09375 C 15.945312 -23.09375 16.445312 -23.066406 16.78125 -23.015625 C 17.113281 -22.972656 17.503906 -22.835938 17.953125 -22.609375 C 18.710938 -22.222656 19.09375 -21.09375 19.09375 -19.21875 C 19.09375 -17.375 18.695312 -16.242188 17.90625 -15.828125 C 17.457031 -15.628906 17.066406 -15.503906 16.734375 -15.453125 C 16.398438 -15.410156 15.894531 -15.390625 15.21875 -15.390625 Z M 15.21875 -15.390625 "/></g></g></g><g fill="#ed0e64" fill-opacity="1"><g transform="translate(189.476668, 243.428956)"><g><path d="M 2.25 -4.53125 C 1.476562 -5.46875 1.09375 -6.304688 1.09375 -7.046875 C 1.09375 -7.796875 1.722656 -8.789062 2.984375 -10.03125 C 3.722656 -10.726562 4.5 -11.078125 5.3125 -11.078125 C 6.132812 -11.078125 7.28125 -10.34375 8.75 -8.875 C 9.15625 -8.382812 9.738281 -7.910156 10.5 -7.453125 C 11.269531 -6.992188 11.976562 -6.765625 12.625 -6.765625 C 15.34375 -6.765625 16.703125 -7.878906 16.703125 -10.109375 C 16.703125 -10.785156 16.328125 -11.347656 15.578125 -11.796875 C 14.835938 -12.253906 13.910156 -12.585938 12.796875 -12.796875 C 11.679688 -13.003906 10.476562 -13.332031 9.1875 -13.78125 C 7.894531 -14.238281 6.691406 -14.773438 5.578125 -15.390625 C 4.460938 -16.003906 3.53125 -16.976562 2.78125 -18.3125 C 2.039062 -19.644531 1.671875 -21.25 1.671875 -23.125 C 1.671875 -25.707031 2.628906 -27.957031 4.546875 -29.875 C 6.472656 -31.789062 9.09375 -32.75 12.40625 -32.75 C 14.15625 -32.75 15.753906 -32.519531 17.203125 -32.0625 C 18.660156 -31.613281 19.664062 -31.15625 20.21875 -30.6875 L 21.328125 -29.859375 C 22.234375 -29.003906 22.6875 -28.285156 22.6875 -27.703125 C 22.6875 -27.117188 22.332031 -26.3125 21.625 -25.28125 C 20.632812 -23.8125 19.613281 -23.078125 18.5625 -23.078125 C 17.9375 -23.078125 17.171875 -23.375 16.265625 -23.96875 C 16.179688 -24.019531 16.015625 -24.160156 15.765625 -24.390625 C 15.515625 -24.628906 15.285156 -24.820312 15.078125 -24.96875 C 14.460938 -25.351562 13.675781 -25.546875 12.71875 -25.546875 C 11.769531 -25.546875 10.976562 -25.316406 10.34375 -24.859375 C 9.71875 -24.410156 9.40625 -23.78125 9.40625 -22.96875 C 9.40625 -22.164062 9.78125 -21.515625 10.53125 -21.015625 C 11.28125 -20.515625 12.210938 -20.175781 13.328125 -20 C 14.441406 -19.820312 15.65625 -19.550781 16.96875 -19.1875 C 18.289062 -18.820312 19.507812 -18.375 20.625 -17.84375 C 21.738281 -17.320312 22.664062 -16.40625 23.40625 -15.09375 C 24.15625 -13.789062 24.53125 -12.1875 24.53125 -10.28125 C 24.53125 -8.382812 24.148438 -6.707031 23.390625 -5.25 C 22.628906 -3.800781 21.632812 -2.679688 20.40625 -1.890625 C 18.03125 -0.335938 15.492188 0.4375 12.796875 0.4375 C 11.421875 0.4375 10.113281 0.269531 8.875 -0.0625 C 7.644531 -0.40625 6.648438 -0.820312 5.890625 -1.3125 C 4.335938 -2.25 3.253906 -3.160156 2.640625 -4.046875 Z M 2.25 -4.53125 "/></g></g></g><g fill="#ed0e64" fill-opacity="1"><g transform="translate(215.106545, 243.428956)"><g><path d="M 16.796875 -20.703125 C 16.972656 -22.347656 18.128906 -23.171875 20.265625 -23.171875 C 21.410156 -23.171875 22.257812 -23.082031 22.8125 -22.90625 C 23.375 -22.726562 23.765625 -22.421875 23.984375 -21.984375 C 24.203125 -21.546875 24.332031 -21.15625 24.375 -20.8125 C 24.425781 -20.476562 24.453125 -19.972656 24.453125 -19.296875 L 24.453125 -3.90625 C 24.453125 -3.238281 24.425781 -2.734375 24.375 -2.390625 C 24.332031 -2.054688 24.207031 -1.671875 24 -1.234375 C 23.59375 -0.472656 22.585938 -0.09375 20.984375 -0.09375 C 19.390625 -0.09375 18.320312 -0.289062 17.78125 -0.6875 C 17.238281 -1.082031 16.925781 -1.660156 16.84375 -2.421875 C 15.757812 -0.867188 13.945312 -0.09375 11.40625 -0.09375 C 8.875 -0.09375 6.519531 -1.25 4.34375 -3.5625 C 2.175781 -5.875 1.09375 -8.5625 1.09375 -11.625 C 1.09375 -14.6875 2.1875 -17.367188 4.375 -19.671875 C 6.5625 -21.972656 8.957031 -23.125 11.5625 -23.125 C 12.5625 -23.125 13.46875 -22.945312 14.28125 -22.59375 C 15.101562 -22.25 15.675781 -21.921875 16 -21.609375 C 16.320312 -21.304688 16.585938 -21.003906 16.796875 -20.703125 Z M 8.796875 -11.5625 C 8.796875 -10.59375 9.175781 -9.71875 9.9375 -8.9375 C 10.695312 -8.164062 11.617188 -7.78125 12.703125 -7.78125 C 13.785156 -7.78125 14.6875 -8.175781 15.40625 -8.96875 C 16.125 -9.757812 16.484375 -10.628906 16.484375 -11.578125 C 16.484375 -12.535156 16.140625 -13.425781 15.453125 -14.25 C 14.765625 -15.070312 13.84375 -15.484375 12.6875 -15.484375 C 11.53125 -15.484375 10.59375 -15.070312 9.875 -14.25 C 9.15625 -13.425781 8.796875 -12.53125 8.796875 -11.5625 Z M 8.796875 -11.5625 "/></g></g></g><g fill="#ed0e64" fill-opacity="1"><g transform="translate(241.30793, 243.428956)"><g><path d="M 15.390625 -11.609375 L 21.234375 -6.765625 C 21.972656 -6.148438 22.4375 -5.679688 22.625 -5.359375 C 22.8125 -5.035156 22.90625 -4.726562 22.90625 -4.4375 C 22.90625 -3.738281 22.453125 -2.785156 21.546875 -1.578125 C 20.546875 -0.347656 19.664062 0.265625 18.90625 0.265625 C 18.257812 0.265625 17.363281 -0.160156 16.21875 -1.015625 L 15.78125 -1.3125 C 15.113281 -1.875 14.070312 -2.847656 12.65625 -4.234375 C 11.25 -5.628906 10.179688 -6.617188 9.453125 -7.203125 L 9.453125 -3.828125 C 9.453125 -3.148438 9.429688 -2.640625 9.390625 -2.296875 C 9.347656 -1.960938 9.207031 -1.578125 8.96875 -1.140625 C 8.582031 -0.378906 7.453125 0 5.578125 0 C 3.734375 0 2.609375 -0.394531 2.203125 -1.1875 C 1.992188 -1.625 1.867188 -2.007812 1.828125 -2.34375 C 1.785156 -2.6875 1.765625 -3.195312 1.765625 -3.875 L 1.765625 -30.203125 C 1.765625 -30.878906 1.785156 -31.382812 1.828125 -31.71875 C 1.867188 -32.0625 1.992188 -32.453125 2.203125 -32.890625 C 2.609375 -33.679688 3.75 -34.078125 5.625 -34.078125 C 7.03125 -34.078125 8.03125 -33.828125 8.625 -33.328125 C 9.113281 -32.921875 9.375 -32.273438 9.40625 -31.390625 C 9.4375 -31.128906 9.453125 -30.71875 9.453125 -30.15625 L 9.453125 -16.21875 C 9.984375 -16.664062 10.78125 -17.414062 11.84375 -18.46875 C 12.914062 -19.519531 13.71875 -20.265625 14.25 -20.703125 L 14.78125 -21.0625 C 15.800781 -21.851562 16.675781 -22.25 17.40625 -22.25 C 18.144531 -22.25 18.988281 -21.65625 19.9375 -20.46875 C 20.894531 -19.28125 21.375 -18.347656 21.375 -17.671875 C 21.375 -17.003906 20.828125 -16.210938 19.734375 -15.296875 Z M 15.390625 -11.609375 "/></g></g></g><g fill="#ed0e64" fill-opacity="1"><g transform="translate(264.87159, 243.428956)"><g><path d="M 1.09375 -11.5625 C 1.09375 -15.082031 2.320312 -17.984375 4.78125 -20.265625 C 7.25 -22.554688 10.066406 -23.703125 13.234375 -23.703125 C 16.398438 -23.703125 19.195312 -22.566406 21.625 -20.296875 C 24.0625 -18.023438 25.28125 -15.128906 25.28125 -11.609375 C 25.28125 -9.171875 24.648438 -7.003906 23.390625 -5.109375 C 22.128906 -3.222656 20.597656 -1.832031 18.796875 -0.9375 C 16.992188 -0.0507812 15.125 0.390625 13.1875 0.390625 C 11.25 0.390625 9.375 -0.0820312 7.5625 -1.03125 C 5.75 -1.988281 4.21875 -3.394531 2.96875 -5.25 C 1.71875 -7.113281 1.09375 -9.21875 1.09375 -11.5625 Z M 10.28125 -8.421875 C 11.226562 -7.703125 12.179688 -7.34375 13.140625 -7.34375 C 14.109375 -7.34375 15.078125 -7.707031 16.046875 -8.4375 C 17.015625 -9.175781 17.5 -10.257812 17.5 -11.6875 C 17.5 -13.125 17.046875 -14.191406 16.140625 -14.890625 C 15.234375 -15.597656 14.25 -15.953125 13.1875 -15.953125 C 12.132812 -15.953125 11.148438 -15.585938 10.234375 -14.859375 C 9.328125 -14.128906 8.875 -13.050781 8.875 -11.625 C 8.875 -10.207031 9.34375 -9.140625 10.28125 -8.421875 Z M 10.28125 -8.421875 "/></g></g></g><g fill="#ed0e64" fill-opacity="1"><g transform="translate(291.248821, 243.428956)"><g><path d="M 1.09375 -11.5625 C 1.09375 -15.082031 2.320312 -17.984375 4.78125 -20.265625 C 7.25 -22.554688 10.066406 -23.703125 13.234375 -23.703125 C 16.398438 -23.703125 19.195312 -22.566406 21.625 -20.296875 C 24.0625 -18.023438 25.28125 -15.128906 25.28125 -11.609375 C 25.28125 -9.171875 24.648438 -7.003906 23.390625 -5.109375 C 22.128906 -3.222656 20.597656 -1.832031 18.796875 -0.9375 C 16.992188 -0.0507812 15.125 0.390625 13.1875 0.390625 C 11.25 0.390625 9.375 -0.0820312 7.5625 -1.03125 C 5.75 -1.988281 4.21875 -3.394531 2.96875 -5.25 C 1.71875 -7.113281 1.09375 -9.21875 1.09375 -11.5625 Z M 10.28125 -8.421875 C 11.226562 -7.703125 12.179688 -7.34375 13.140625 -7.34375 C 14.109375 -7.34375 15.078125 -7.707031 16.046875 -8.4375 C 17.015625 -9.175781 17.5 -10.257812 17.5 -11.6875 C 17.5 -13.125 17.046875 -14.191406 16.140625 -14.890625 C 15.234375 -15.597656 14.25 -15.953125 13.1875 -15.953125 C 12.132812 -15.953125 11.148438 -15.585938 10.234375 -14.859375 C 9.328125 -14.128906 8.875 -13.050781 8.875 -11.625 C 8.875 -10.207031 9.34375 -9.140625 10.28125 -8.421875 Z M 10.28125 -8.421875 "/></g></g></g><g fill="#ed0e64" fill-opacity="1"><g transform="translate(317.626053, 243.428956)"><g><path d="M 14.640625 -23.171875 C 17.566406 -23.171875 20.003906 -22.046875 21.953125 -19.796875 C 23.910156 -17.554688 24.890625 -14.828125 24.890625 -11.609375 L 24.890625 -3.875 C 24.890625 -3.195312 24.863281 -2.6875 24.8125 -2.34375 C 24.769531 -2.007812 24.648438 -1.640625 24.453125 -1.234375 C 24.035156 -0.441406 22.890625 -0.046875 21.015625 -0.046875 C 18.929688 -0.046875 17.726562 -0.585938 17.40625 -1.671875 C 17.226562 -2.171875 17.140625 -2.914062 17.140625 -3.90625 L 17.140625 -11.65625 C 17.140625 -12.851562 16.796875 -13.789062 16.109375 -14.46875 C 15.421875 -15.144531 14.5 -15.484375 13.34375 -15.484375 C 12.1875 -15.484375 11.25 -15.128906 10.53125 -14.421875 C 9.8125 -13.710938 9.453125 -12.789062 9.453125 -11.65625 L 9.453125 -3.875 C 9.453125 -3.195312 9.429688 -2.6875 9.390625 -2.34375 C 9.347656 -2.007812 9.207031 -1.640625 8.96875 -1.234375 C 8.582031 -0.441406 7.453125 -0.046875 5.578125 -0.046875 C 3.734375 -0.046875 2.609375 -0.441406 2.203125 -1.234375 C 1.992188 -1.671875 1.867188 -2.054688 1.828125 -2.390625 C 1.785156 -2.734375 1.765625 -3.238281 1.765625 -3.90625 L 1.765625 -19.484375 C 1.765625 -20.128906 1.785156 -20.617188 1.828125 -20.953125 C 1.867188 -21.285156 2.007812 -21.660156 2.25 -22.078125 C 2.65625 -22.804688 3.78125 -23.171875 5.625 -23.171875 C 7.414062 -23.171875 8.515625 -22.832031 8.921875 -22.15625 C 9.210938 -21.65625 9.359375 -21.054688 9.359375 -20.359375 C 9.484375 -20.566406 9.75 -20.859375 10.15625 -21.234375 C 10.5625 -21.617188 10.957031 -21.925781 11.34375 -22.15625 C 12.34375 -22.832031 13.441406 -23.171875 14.640625 -23.171875 Z M 14.640625 -23.171875 "/></g></g></g></svg>